<svg width="10" height="10" viewBox="0 0 10 10" fill="none" xmlns="http://www.w3.org/2000/svg">
<path d="M5.9375 1.66676C5.9375 1.53853 6.01584 1.42331 6.13508 1.37616C6.25433 1.329 6.39028 1.35948 6.47798 1.45303L8.97798 4.11969C9.09067 4.2399 9.09067 4.42695 8.97798 4.54716L6.47798 7.21382C6.39028 7.30737 6.25433 7.33785 6.13508 7.2907C6.01584 7.24354 5.9375 7.12832 5.9375 7.00009V5.76025C4.76842 5.78508 3.93361 5.95517 3.27952 6.32727C2.57553 6.72777 2.03889 7.38673 1.53296 8.46606C1.47081 8.59863 1.32496 8.67028 1.18206 8.63845C1.03915 8.60662 0.937498 8.47983 0.9375 8.33342C0.937521 6.28238 1.47253 4.90176 2.45003 4.04309C3.35106 3.25159 4.57418 2.95237 5.9375 2.91412V1.66676Z" fill="#868686"/>
</svg>
