<svg width="16" height="16" viewBox="0 0 16 16" fill="none" xmlns="http://www.w3.org/2000/svg">
<g clip-path="url(#clip0_1703_442395)">
<path d="M7.9974 5.33332C8.73073 5.33332 9.33073 4.73332 9.33073 3.99999C9.33073 3.26666 8.73073 2.66666 7.9974 2.66666C7.26406 2.66666 6.66406 3.26666 6.66406 3.99999C6.66406 4.73332 7.26406 5.33332 7.9974 5.33332ZM7.9974 6.66666C7.26406 6.66666 6.66406 7.26666 6.66406 7.99999C6.66406 8.73332 7.26406 9.33332 7.9974 9.33332C8.73073 9.33332 9.33073 8.73332 9.33073 7.99999C9.33073 7.26666 8.73073 6.66666 7.9974 6.66666ZM7.9974 10.6667C7.26406 10.6667 6.66406 11.2667 6.66406 12C6.66406 12.7333 7.26406 13.3333 7.9974 13.3333C8.73073 13.3333 9.33073 12.7333 9.33073 12C9.33073 11.2667 8.73073 10.6667 7.9974 10.6667Z" fill="white"/>
</g>
<defs>
<clipPath id="clip0_1703_442395">
<rect width="16" height="16" fill="white"/>
</clipPath>
</defs>
</svg>
