<svg width="14" height="14" viewBox="0 0 14 14" fill="none" xmlns="http://www.w3.org/2000/svg">
<g clip-path="url(#clip0_1703_469647)">
<path fill-rule="evenodd" clip-rule="evenodd" d="M5.15671 2.5708L3.57958 2.15577C2.71553 1.92839 1.92703 2.71689 2.15442 3.58093L2.56945 5.15807L1.16085 5.97975C0.389091 6.42997 0.389093 7.54507 1.16085 7.99522L2.56945 8.81691L2.15442 10.3941C1.92704 11.2581 2.71554 12.0466 3.57958 11.8192L5.1567 11.4042L5.97845 12.8129C6.42861 13.5846 7.54371 13.5846 7.99392 12.8129L8.81561 11.4042L10.3927 11.8192C11.2567 12.0466 12.0452 11.2581 11.8178 10.3941L11.4029 8.81697L12.8116 7.99522C13.5833 7.54507 13.5833 6.42997 12.8116 5.97975L11.4029 5.15801L11.8178 3.58091C12.0452 2.71687 11.2567 1.92837 10.3927 2.15576L8.81561 2.57078L7.99392 1.16215C7.54371 0.390394 6.42861 0.390395 5.97845 1.16215L5.15671 2.5708Z" fill="#36B100"/>
<path d="M6.30243 8.74796C6.19335 8.74621 6.08893 8.70771 6.01006 8.6401L4.21455 7.10348C4.17361 7.06866 4.14081 7.02683 4.11807 6.98052C4.09533 6.93414 4.0831 6.88427 4.0821 6.83363C4.0811 6.78306 4.09133 6.73277 4.11222 6.68576C4.13311 6.63874 4.16423 6.59587 4.20377 6.55976C4.28409 6.48637 4.39339 6.4442 4.50808 6.44239C4.62277 6.44058 4.73366 6.47926 4.8168 6.55007L6.29887 7.81789L9.1516 4.80296C9.2261 4.72533 9.3315 4.67692 9.44537 4.66812C9.55918 4.65932 9.67235 4.69082 9.76055 4.75588C9.80412 4.78809 9.84005 4.82775 9.86636 4.87252C9.89261 4.91731 9.90871 4.96632 9.91373 5.01672C9.91869 5.06712 9.91245 5.1179 9.8953 5.16612C9.8782 5.21434 9.85055 5.25903 9.81404 5.2976L6.67833 8.61274C6.63744 8.65591 6.58645 8.69056 6.52905 8.71424C6.47171 8.73792 6.40924 8.75012 6.346 8.75C6.33148 8.75 6.31695 8.7493 6.30243 8.74796Z" fill="white"/>
</g>
<defs>
<clipPath id="clip0_1703_469647">
<rect width="14" height="14" fill="white"/>
</clipPath>
</defs>
</svg>
